# xmcd
#
# Track frame offsets: 
#        150
#        4947
#        18334
#        36310
#        55986
#        73242
#        91238
#        103399
#        115530
#        134512
#        151521
#        162181
#        180742
#
# Disc length: 2673 seconds
#
# Revision: 1
# Processed by: cddbd v1.5.2PL0 Copyright (c) Steve Scherf et al.
# Submitted via: ExactAudioCopy v0.99pb4
#
DISCID=a70a6f0d
DTITLE=Katzenjammer - Le Pop
DYEAR=2010
DGENRE=Alternative
TTITLE0=Overture
TTITLE1=A Bar in Amsterdam
TTITLE2=Demon Kitty Rag
TTITLE3=Tea with Cinnamon
TTITLE4=Hey Ho on the Devil's Back
TTITLE5=Wading in Deeper
TTITLE6=Le Pop
TTITLE7=Der Kapitän
TTITLE8=Virginia Clemm
TTITLE9=Play My Darling Play
TTITLE10=To the Sea
TTITLE11=Mother Superior
TTITLE12=Ain't No Thang
EXTD=
EXTT0=
EXTT1=
EXTT2=
EXTT3=
EXTT4=
EXTT5=
EXTT6=
EXTT7=
EXTT8=
EXTT9=
EXTT10=
EXTT11=
EXTT12=
PLAYORDER=
